<svg width="21" height="18" viewBox="0 0 21 18" fill="none" xmlns="http://www.w3.org/2000/svg">
<path fill-rule="evenodd" clip-rule="evenodd" d="M15.4959 17.8522C16.6941 18.3988 17.1434 17.2534 17.1434 17.2534L20.3137 0.64532C20.2888 -0.474036 18.8409 0.202784 18.8409 0.202784L1.09225 7.46558C1.09225 7.46558 0.243511 7.77796 0.3184 8.32462C0.393289 8.87129 1.06729 9.1316 1.06729 9.1316L5.53566 10.6935C5.53566 10.6935 6.88366 15.3011 7.15825 16.1861C7.40788 17.0452 7.63254 17.0712 7.63254 17.0712C7.88217 17.1753 8.10684 16.9931 8.10684 16.9931L11.0025 14.2598L15.4959 17.8522ZM16.2699 3.58681C16.2699 3.58681 16.894 3.19634 16.869 3.58681C16.869 3.58681 16.9689 3.63888 16.6443 4.00332C16.3448 4.3157 9.28028 10.9277 8.33169 11.8128C8.2568 11.8648 8.20687 11.9429 8.20687 12.0471L7.93228 14.494C7.88235 14.7543 7.55783 14.7804 7.48295 14.5461L6.30969 10.5372C6.25976 10.381 6.30969 10.1988 6.45946 10.0947L16.2699 3.58681Z" fill="#5F5F6E"/>
</svg>
