<svg width="25" height="24" viewBox="0 0 25 24" fill="none" xmlns="http://www.w3.org/2000/svg">
<path fill-rule="evenodd" clip-rule="evenodd" d="M12.3137 16C12.0857 16 11.8587 15.923 11.6737 15.768L5.67369 10.768C5.24969 10.415 5.19169 9.78401 5.54569 9.36001C5.89869 8.93601 6.52869 8.87901 6.95369 9.23201L12.3247 13.708L17.6867 9.39301C18.1167 9.04701 18.7467 9.11501 19.0927 9.54501C19.4387 9.97501 19.3707 10.604 18.9407 10.951L12.9407 15.779C12.7577 15.926 12.5357 16 12.3137 16" fill="#5F5F6E"/>
<mask id="mask0_643_5537" style="mask-type:alpha" maskUnits="userSpaceOnUse" x="5" y="9" width="15" height="7">
<path fill-rule="evenodd" clip-rule="evenodd" d="M12.3137 16C12.0857 16 11.8587 15.923 11.6737 15.768L5.67369 10.768C5.24969 10.415 5.19169 9.78401 5.54569 9.36001C5.89869 8.93601 6.52869 8.87901 6.95369 9.23201L12.3247 13.708L17.6867 9.39301C18.1167 9.04701 18.7467 9.11501 19.0927 9.54501C19.4387 9.97501 19.3707 10.604 18.9407 10.951L12.9407 15.779C12.7577 15.926 12.5357 16 12.3137 16" fill="white"/>
</mask>
<g mask="url(#mask0_643_5537)">
<rect x="0.313721" width="24" height="24" fill="#5F5F6E"/>
</g>
</svg>
