<svg width="36" height="36" viewBox="0 0 36 36" fill="none" xmlns="http://www.w3.org/2000/svg">
<path fill-rule="evenodd" clip-rule="evenodd" d="M17.9833 10.9386L9.94029 17.4111C9.29529 17.9301 8.35179 17.8281 7.83129 17.1831C7.31229 16.5366 7.41429 15.5931 8.05929 15.0726L17.0593 7.8306C17.6158 7.3836 18.4108 7.3881 18.9598 7.8486L27.9598 15.3486C28.5973 15.8781 28.6828 16.8231 28.1518 17.4606C27.8548 17.8161 27.4288 18.0006 26.9998 18.0006C26.6608 18.0006 26.3203 17.8851 26.0398 17.6526L17.9833 10.9386ZM17.0596 18.3314C17.6161 17.8829 18.4111 17.8889 18.9601 18.3479L27.9601 25.8479C28.5961 26.3789 28.6816 27.3239 28.1521 27.9599C27.8551 28.3169 27.4291 28.4999 26.9986 28.4999C26.6611 28.4999 26.3206 28.3859 26.0401 28.1519L17.9836 21.4394L9.9406 27.9104C9.2956 28.4309 8.3521 28.3289 7.8316 27.6824C7.3111 27.0374 7.4146 26.0939 8.0596 25.5734L17.0596 18.3314Z" fill="#5F5F6E"/>
<mask id="mask0_643_5125" style="mask-type:alpha" maskUnits="userSpaceOnUse" x="7" y="7" width="22" height="22">
<path fill-rule="evenodd" clip-rule="evenodd" d="M17.9833 10.9386L9.94029 17.4111C9.29529 17.9301 8.35179 17.8281 7.83129 17.1831C7.31229 16.5366 7.41429 15.5931 8.05929 15.0726L17.0593 7.8306C17.6158 7.3836 18.4108 7.3881 18.9598 7.8486L27.9598 15.3486C28.5973 15.8781 28.6828 16.8231 28.1518 17.4606C27.8548 17.8161 27.4288 18.0006 26.9998 18.0006C26.6608 18.0006 26.3203 17.8851 26.0398 17.6526L17.9833 10.9386ZM17.0596 18.3314C17.6161 17.8829 18.4111 17.8889 18.9601 18.3479L27.9601 25.8479C28.5961 26.3789 28.6816 27.3239 28.1521 27.9599C27.8551 28.3169 27.4291 28.4999 26.9986 28.4999C26.6611 28.4999 26.3206 28.3859 26.0401 28.1519L17.9836 21.4394L9.9406 27.9104C9.2956 28.4309 8.3521 28.3289 7.8316 27.6824C7.3111 27.0374 7.4146 26.0939 8.0596 25.5734L17.0596 18.3314Z" fill="white"/>
</mask>
<g mask="url(#mask0_643_5125)">
<rect width="36" height="36" fill="#5F5F6E"/>
</g>
</svg>
