<svg width="24" height="18" viewBox="0 0 24 18" fill="none" xmlns="http://www.w3.org/2000/svg">
<path d="M20.9957 4.49275C20.9957 4.69565 20.9957 4.89855 20.9957 5.07246C20.9957 11.0725 16.2391 18 7.56896 18C4.88964 18 2.42105 17.2464 0.313721 15.971C0.674977 16 1.06634 16.029 1.42759 16.029C3.62524 16.029 5.67236 15.3043 7.29801 14.087C5.22079 14.058 3.47472 12.7246 2.90273 10.9275C3.20377 10.9855 3.47472 11.0145 3.80587 11.0145C4.22733 11.0145 4.6488 10.9565 5.04016 10.8406C2.87262 10.4348 1.24697 8.6087 1.24697 6.4058C1.24697 6.37681 1.24697 6.37681 1.24697 6.34783C1.87917 6.69565 2.60168 6.89855 3.3844 6.92754C2.12 6.11594 1.27707 4.72464 1.27707 3.13043C1.27707 2.28986 1.51791 1.50725 1.90927 0.84058C4.22733 3.5942 7.71948 5.3913 11.6331 5.5942C11.5428 5.27536 11.5127 4.89855 11.5127 4.55072C11.5127 2.02899 13.62 0 16.2391 0C17.5938 0 18.8281 0.550725 19.671 1.42029C20.7548 1.21739 21.7483 0.84058 22.6815 0.318841C22.3203 1.3913 21.5676 2.26087 20.6043 2.84058C21.5676 2.72464 22.4708 2.49275 23.3137 2.11594C22.7116 3.04348 21.9289 3.85507 20.9957 4.49275Z" fill="#5F5F6E"/>
</svg>
