<svg width="23" height="24" viewBox="0 0 23 24" fill="none" xmlns="http://www.w3.org/2000/svg">
<path fill-rule="evenodd" clip-rule="evenodd" d="M14.1421 8.22876L11.3137 11.0572L8.48528 8.22876C8.2246 7.96808 7.80269 7.96855 7.54248 8.22876C7.28226 8.48898 7.28179 8.91089 7.54248 9.17157L10.3709 12L7.54248 14.8284C7.28226 15.0886 7.28179 15.5105 7.54248 15.7712C7.80316 16.0319 8.22507 16.0315 8.48528 15.7712L11.3137 12.9428L14.1421 15.7712C14.4028 16.0319 14.8247 16.0315 15.0849 15.7712C15.3452 15.511 15.3456 15.0891 15.0849 14.8284L12.2565 12L15.0849 9.17157C15.3452 8.91136 15.3456 8.48945 15.0849 8.22876C14.8243 7.96808 14.4024 7.96855 14.1421 8.22876" fill="#231F20"/>
<mask id="mask0_642_4970" style="mask-type:alpha" maskUnits="userSpaceOnUse" x="7" y="8" width="9" height="8">
<path fill-rule="evenodd" clip-rule="evenodd" d="M14.1421 8.22876L11.3137 11.0572L8.48528 8.22876C8.2246 7.96808 7.80269 7.96855 7.54248 8.22876C7.28226 8.48898 7.28179 8.91089 7.54248 9.17157L10.3709 12L7.54248 14.8284C7.28226 15.0886 7.28179 15.5105 7.54248 15.7712C7.80316 16.0319 8.22507 16.0315 8.48528 15.7712L11.3137 12.9428L14.1421 15.7712C14.4028 16.0319 14.8247 16.0315 15.0849 15.7712C15.3452 15.511 15.3456 15.0891 15.0849 14.8284L12.2565 12L15.0849 9.17157C15.3452 8.91136 15.3456 8.48945 15.0849 8.22876C14.8243 7.96808 14.4024 7.96855 14.1421 8.22876" fill="white"/>
</mask>
<g mask="url(#mask0_642_4970)">
<rect y="12" width="16" height="16" transform="rotate(-45 0 12)" fill="#282B31"/>
</g>
</svg>
