<svg width="29" height="16" viewBox="0 0 29 16" fill="none" xmlns="http://www.w3.org/2000/svg">
<path fill-rule="evenodd" clip-rule="evenodd" d="M27.6713 1.08337C27.866 0.458948 27.6713 0 26.7449 0H23.6817C22.9027 0 22.5439 0.396421 22.3492 0.833684C22.3492 0.833684 20.7913 4.48695 18.5845 6.86C17.8705 7.54695 17.5461 7.76526 17.1566 7.76526C16.9619 7.76526 16.68 7.54695 16.68 6.92253V1.08337C16.68 0.333896 16.454 0 15.8048 0H10.9912C10.5046 0 10.2118 0.34779 10.2118 0.677474C10.2118 1.388 11.315 1.55179 11.4288 3.55011V7.89053C11.4288 8.84211 11.2503 9.01474 10.8608 9.01474C9.82238 9.01474 7.29654 5.34484 5.79819 1.14589C5.50456 0.329684 5.21005 0 4.42718 0H1.36397C0.488761 0 0.313721 0.396421 0.313721 0.833684C0.313721 1.61432 1.35237 5.48632 5.14922 10.6072C7.68075 14.104 11.2468 16 14.492 16C16.4394 16 16.68 15.5789 16.68 14.8537V12.2105C16.68 11.3684 16.8645 11.2004 17.4809 11.2004C17.9355 11.2004 18.7142 11.4189 20.5318 13.1051C22.6087 15.1032 22.9509 16 24.1193 16H27.1825C28.0577 16 28.4953 15.5789 28.2428 14.748C27.9667 13.9198 26.9751 12.7185 25.6592 11.2941C24.9453 10.4821 23.8742 9.60779 23.55 9.17074C23.0955 8.60863 23.2253 8.35895 23.55 7.85958C23.55 7.85958 27.2818 2.80105 27.6713 1.08358V1.08337Z" fill="#282B31"/>
</svg>
