<svg width="18" height="18" viewBox="0 0 18 18" fill="none" xmlns="http://www.w3.org/2000/svg">
<path fill-rule="evenodd" clip-rule="evenodd" d="M8.33349 17.2501C8.24799 17.2501 8.16174 17.2351 8.07699 17.2043C7.75299 17.0866 7.55049 16.7626 7.58799 16.4198L8.16399 11.1001H3.75024C3.47349 11.1001 3.21924 10.9478 3.08874 10.7033C2.95824 10.4588 2.97324 10.1633 3.12699 9.93308L9.04299 1.08308C9.23499 0.795825 9.59799 0.676575 9.92274 0.795825C10.2475 0.913575 10.4492 1.23758 10.4117 1.58033L9.83574 6.90008H14.2502C14.527 6.90008 14.7812 7.05232 14.9117 7.29682C15.0415 7.54132 15.0272 7.83683 14.8735 8.06708L8.95674 16.9171C8.81499 17.1301 8.57799 17.2501 8.33349 17.2501" fill="#282B31"/>
<mask id="mask0_642_4715" style="mask-type:alpha" maskUnits="userSpaceOnUse" x="3" y="0" width="12" height="18">
<path fill-rule="evenodd" clip-rule="evenodd" d="M8.33349 17.2501C8.24799 17.2501 8.16174 17.2351 8.07699 17.2043C7.75299 17.0866 7.55049 16.7626 7.58799 16.4198L8.16399 11.1001H3.75024C3.47349 11.1001 3.21924 10.9478 3.08874 10.7033C2.95824 10.4588 2.97324 10.1633 3.12699 9.93308L9.04299 1.08308C9.23499 0.795825 9.59799 0.676575 9.92274 0.795825C10.2475 0.913575 10.4492 1.23758 10.4117 1.58033L9.83574 6.90008H14.2502C14.527 6.90008 14.7812 7.05232 14.9117 7.29682C15.0415 7.54132 15.0272 7.83683 14.8735 8.06708L8.95674 16.9171C8.81499 17.1301 8.57799 17.2501 8.33349 17.2501" fill="white"/>
</mask>
<g mask="url(#mask0_642_4715)">
<rect width="18" height="18" fill="#282B31"/>
</g>
</svg>
