<svg width="15" height="10" viewBox="0 0 15 10" fill="none" xmlns="http://www.w3.org/2000/svg">
<path d="M4.36286 0C4.79582 0 5.19547 0.0333043 5.56182 0.133217C5.92817 0.199826 6.2279 0.333043 6.49434 0.499565C6.76077 0.666086 6.9606 0.899216 7.09382 1.19895C7.22703 1.49869 7.29364 1.86504 7.29364 2.26469C7.29364 2.73095 7.19373 3.1306 6.9606 3.43034C6.76077 3.73008 6.42773 3.99652 6.02808 4.19634C6.59425 4.36286 7.02721 4.6626 7.29364 5.06225C7.56008 5.46191 7.7266 5.96147 7.7266 6.52764C7.7266 6.9939 7.62668 7.39356 7.46016 7.7266C7.29364 8.05964 7.02721 8.35938 6.72747 8.55921C6.42773 8.75903 6.06138 8.92555 5.66173 9.02547C5.26208 9.12538 4.86243 9.19199 4.46278 9.19199H0V0H4.36286ZM4.09643 3.73008C4.46278 3.73008 4.76251 3.63017 4.99564 3.46365C5.22877 3.29713 5.32869 2.99739 5.32869 2.63104C5.32869 2.43121 5.29538 2.23139 5.22877 2.09817C5.16217 1.96495 5.06225 1.86504 4.92904 1.76513C4.79582 1.69852 4.6626 1.63191 4.49608 1.59861C4.32956 1.5653 4.16304 1.5653 3.96321 1.5653H2.03156V3.73008H4.09643ZM4.19634 7.65999C4.39617 7.65999 4.59599 7.62668 4.76251 7.59338C4.92904 7.56008 5.09556 7.49347 5.22877 7.39356C5.36199 7.29364 5.46191 7.19373 5.56182 7.02721C5.62843 6.86069 5.69504 6.66086 5.69504 6.42773C5.69504 5.96147 5.56182 5.62843 5.29538 5.3953C5.02895 5.19547 4.6626 5.09556 4.22965 5.09556H2.03156V7.65999H4.19634ZM10.6241 7.62668C10.8905 7.89312 11.2902 8.02634 11.823 8.02634C12.1894 8.02634 12.5224 7.92642 12.7889 7.7599C13.0553 7.56008 13.2218 7.36025 13.2884 7.16042H14.9203C14.6539 7.95973 14.2542 8.5259 13.7214 8.89225C13.1885 9.22529 12.5557 9.42512 11.7897 9.42512C11.2569 9.42512 10.7906 9.3252 10.3576 9.15868C9.92468 8.99216 9.59164 8.75903 9.2919 8.42599C8.99216 8.12625 8.75903 7.7599 8.62581 7.32695C8.45929 6.89399 8.39268 6.42773 8.39268 5.89486C8.39268 5.3953 8.45929 4.92904 8.62581 4.49608C8.79233 4.06312 9.02547 3.69678 9.3252 3.36373C9.62494 3.064 9.99129 2.79756 10.3909 2.63104C10.8239 2.46452 11.2569 2.36461 11.7897 2.36461C12.3559 2.36461 12.8555 2.46452 13.2884 2.69765C13.7214 2.93078 14.0544 3.19721 14.3208 3.59686C14.5873 3.96321 14.7871 4.39617 14.9203 4.86243C14.9869 5.32869 15.0202 5.79495 14.9869 6.32782H10.1578C10.1578 6.86069 10.3576 7.36025 10.6241 7.62668ZM12.7222 4.12973C12.4891 3.8966 12.1228 3.76339 11.6898 3.76339C11.3901 3.76339 11.1569 3.82999 10.9571 3.92991C10.7573 4.02982 10.6241 4.16304 10.4909 4.29625C10.3576 4.42947 10.291 4.59599 10.2577 4.76252C10.2244 4.92904 10.1911 5.06225 10.1911 5.19547H13.1885C13.1219 4.69591 12.9554 4.36286 12.7222 4.12973ZM9.79146 0.632782H13.5215V1.532H9.79146V0.632782Z" fill="white"/>
</svg>
