<svg width="14" height="14" viewBox="0 0 14 14" fill="none" xmlns="http://www.w3.org/2000/svg">
<path fill-rule="evenodd" clip-rule="evenodd" d="M5.75356 10.5C5.59256 10.5 5.43856 10.4335 5.32831 10.3163L2.49156 7.29518C2.27047 7.06068 2.28272 6.69143 2.51722 6.47093C2.75231 6.25043 3.12156 6.2621 3.34147 6.4966L5.74773 9.05801L10.6524 3.69018C10.8706 3.4516 11.2392 3.43585 11.4772 3.65285C11.7146 3.86985 11.731 4.2391 11.514 4.47651L6.18406 10.3098C6.07497 10.43 5.91981 10.4988 5.75764 10.5H5.75356Z" fill="white"/>
<mask id="mask0_642_4736" style="mask-type:alpha" maskUnits="userSpaceOnUse" x="2" y="3" width="10" height="8">
<path fill-rule="evenodd" clip-rule="evenodd" d="M5.75356 10.5C5.59256 10.5 5.43856 10.4335 5.32831 10.3163L2.49156 7.29518C2.27047 7.06068 2.28272 6.69143 2.51722 6.47093C2.75231 6.25043 3.12156 6.2621 3.34147 6.4966L5.74773 9.05801L10.6524 3.69018C10.8706 3.4516 11.2392 3.43585 11.4772 3.65285C11.7146 3.86985 11.731 4.2391 11.514 4.47651L6.18406 10.3098C6.07497 10.43 5.91981 10.4988 5.75764 10.5H5.75356Z" fill="white"/>
</mask>
<g mask="url(#mask0_642_4736)">
<rect width="14" height="14" fill="white"/>
</g>
</svg>
