<svg width="15" height="15" viewBox="0 0 15 15" fill="none" xmlns="http://www.w3.org/2000/svg">
<path d="M7.5 14.9824C3.36328 14.9824 0 11.625 0 7.49414C0 3.35742 3.36328 0 7.5 0C11.6367 0 15 3.35742 15 7.48828C15 11.6191 11.6367 14.9824 7.5 14.9824ZM13.8223 8.51367C13.6055 8.44336 11.8418 7.92188 9.83203 8.23828C10.6699 10.5352 11.0098 12.4102 11.0742 12.7969C12.5156 11.8301 13.541 10.2949 13.8223 8.51367ZM10.002 13.3887C9.9082 12.8262 9.5332 10.8691 8.63672 8.53711C8.625 8.54297 8.60742 8.54883 8.5957 8.54883C4.98047 9.80859 3.68555 12.3105 3.56836 12.5449C4.65234 13.3887 6.01758 13.8926 7.5 13.8926C8.38477 13.8984 9.23437 13.7168 10.002 13.3887V13.3887ZM2.74219 11.7773C2.88867 11.5313 4.64648 8.625 7.95117 7.55273C8.0332 7.52344 8.12109 7.5 8.20312 7.47656C8.04492 7.11328 7.86914 6.75 7.68164 6.39258C4.48242 7.34766 1.37695 7.30664 1.0957 7.30078C1.0957 7.36523 1.08984 7.42969 1.08984 7.49414C1.0957 9.14063 1.7168 10.6406 2.74219 11.7773V11.7773ZM1.23047 6.1875C1.51758 6.19336 4.1543 6.20508 7.1543 5.4082C6.09375 3.52148 4.94531 1.93945 4.78125 1.71094C2.98242 2.55469 1.64648 4.20703 1.23047 6.1875ZM6 1.27734C6.17578 1.51172 7.3418 3.09375 8.39062 5.02148C10.6699 4.16602 11.6309 2.87695 11.748 2.71289C10.6172 1.71094 9.12891 1.10156 7.5 1.10156C6.98437 1.10156 6.48047 1.16602 6 1.27734V1.27734ZM12.457 3.45117C12.3223 3.63281 11.25 5.00977 8.88281 5.97656C9.0293 6.28125 9.17578 6.5918 9.31055 6.90234C9.35742 7.01367 9.4043 7.125 9.45117 7.23047C11.584 6.96094 13.6992 7.39453 13.9102 7.43555C13.8926 5.92969 13.3535 4.54102 12.457 3.45117V3.45117Z" fill="white"/>
</svg>
