<svg width="14" height="14" viewBox="0 0 14 14" fill="none" xmlns="http://www.w3.org/2000/svg">
<path fill-rule="evenodd" clip-rule="evenodd" d="M5.75356 10.5C5.59256 10.5 5.43856 10.4335 5.32831 10.3162L2.49156 7.29517C2.27047 7.06067 2.28272 6.69142 2.51722 6.47092C2.75231 6.25042 3.12156 6.26208 3.34147 6.49658L5.74773 9.058L10.6524 3.69017C10.8706 3.45158 11.2392 3.43583 11.4772 3.65283C11.7146 3.86983 11.731 4.23908 11.514 4.4765L6.18406 10.3098C6.07498 10.43 5.91981 10.4988 5.75764 10.5H5.75356Z" fill="#BABABA"/>
<mask id="mask0_546_4430" style="mask-type:alpha" maskUnits="userSpaceOnUse" x="2" y="3" width="10" height="8">
<path fill-rule="evenodd" clip-rule="evenodd" d="M5.75356 10.5C5.59256 10.5 5.43856 10.4335 5.32831 10.3162L2.49156 7.29517C2.27047 7.06067 2.28272 6.69142 2.51722 6.47092C2.75231 6.25042 3.12156 6.26208 3.34147 6.49658L5.74773 9.058L10.6524 3.69017C10.8706 3.45158 11.2392 3.43583 11.4772 3.65283C11.7146 3.86983 11.731 4.23908 11.514 4.4765L6.18406 10.3098C6.07498 10.43 5.91981 10.4988 5.75764 10.5H5.75356Z" fill="white"/>
</mask>
<g mask="url(#mask0_546_4430)">
<rect width="14" height="14" fill="#BABABA"/>
</g>
</svg>
