<svg width="18" height="18" viewBox="0 0 18 18" fill="none" xmlns="http://www.w3.org/2000/svg">
<path fill-rule="evenodd" clip-rule="evenodd" d="M8.33346 17.2501C8.24796 17.2501 8.16171 17.2351 8.07696 17.2043C7.75296 17.0866 7.55046 16.7626 7.58796 16.4198L8.16396 11.1001H3.75021C3.47346 11.1001 3.21921 10.9478 3.08871 10.7033C2.95821 10.4588 2.97321 10.1633 3.12696 9.93306L9.04296 1.08306C9.23496 0.795814 9.59796 0.676564 9.92271 0.795814C10.2475 0.913564 10.4492 1.23756 10.4117 1.58031L9.83571 6.90006H14.2502C14.527 6.90006 14.7812 7.05231 14.9117 7.29681C15.0415 7.54131 15.0272 7.83681 14.8735 8.06706L8.95671 16.9171C8.81496 17.1301 8.57796 17.2501 8.33346 17.2501Z" fill="#A6ADB1"/>
<mask id="mask0_545_4085" style="mask-type:alpha" maskUnits="userSpaceOnUse" x="3" y="0" width="12" height="18">
<path fill-rule="evenodd" clip-rule="evenodd" d="M8.33346 17.2501C8.24796 17.2501 8.16171 17.2351 8.07696 17.2043C7.75296 17.0866 7.55046 16.7626 7.58796 16.4198L8.16396 11.1001H3.75021C3.47346 11.1001 3.21921 10.9478 3.08871 10.7033C2.95821 10.4588 2.97321 10.1633 3.12696 9.93306L9.04296 1.08306C9.23496 0.795814 9.59796 0.676564 9.92271 0.795814C10.2475 0.913564 10.4492 1.23756 10.4117 1.58031L9.83571 6.90006H14.2502C14.527 6.90006 14.7812 7.05231 14.9117 7.29681C15.0415 7.54131 15.0272 7.83681 14.8735 8.06706L8.95671 16.9171C8.81496 17.1301 8.57796 17.2501 8.33346 17.2501Z" fill="white"/>
</mask>
<g mask="url(#mask0_545_4085)">
<rect width="18" height="18" fill="#A6ADB1"/>
</g>
</svg>
