<svg width="24" height="24" viewBox="0 0 24 24" fill="none" xmlns="http://www.w3.org/2000/svg">
<path fill-rule="evenodd" clip-rule="evenodd" d="M11.5 14.5996L14.309 11.9996L11.5 9.4006V14.5996ZM15.98 13.1787L12.338 16.5487C12.019 16.8447 11.604 16.9997 11.181 16.9997C10.948 16.9997 10.711 16.9517 10.488 16.8547C9.878 16.5887 9.5 16.0197 9.5 15.3697V8.6297C9.5 7.9807 9.878 7.4107 10.488 7.1457C11.114 6.8707 11.841 6.9907 12.339 7.4517L15.98 10.8217C16.311 11.1267 16.5 11.5567 16.5 11.9997C16.5 12.4437 16.311 12.8727 15.98 13.1787ZM12 1.9997C6.486 1.9997 2 6.4867 2 11.9997C2 17.5137 6.486 21.9997 12 21.9997C17.514 21.9997 22 17.5137 22 11.9997C22 6.4867 17.514 1.9997 12 1.9997Z" fill="#A6ADB1"/>
<mask id="mask0_546_4332" style="mask-type:alpha" maskUnits="userSpaceOnUse" x="2" y="1" width="20" height="21">
<path fill-rule="evenodd" clip-rule="evenodd" d="M11.5 14.5996L14.309 11.9996L11.5 9.4006V14.5996ZM15.98 13.1787L12.338 16.5487C12.019 16.8447 11.604 16.9997 11.181 16.9997C10.948 16.9997 10.711 16.9517 10.488 16.8547C9.878 16.5887 9.5 16.0197 9.5 15.3697V8.6297C9.5 7.9807 9.878 7.4107 10.488 7.1457C11.114 6.8707 11.841 6.9907 12.339 7.4517L15.98 10.8217C16.311 11.1267 16.5 11.5567 16.5 11.9997C16.5 12.4437 16.311 12.8727 15.98 13.1787ZM12 1.9997C6.486 1.9997 2 6.4867 2 11.9997C2 17.5137 6.486 21.9997 12 21.9997C17.514 21.9997 22 17.5137 22 11.9997C22 6.4867 17.514 1.9997 12 1.9997Z" fill="white"/>
</mask>
<g mask="url(#mask0_546_4332)">
<rect width="24" height="24" fill="#A6ADB1"/>
</g>
</svg>
