<svg width="15" height="10" viewBox="0 0 15 10" fill="none" xmlns="http://www.w3.org/2000/svg">
<path d="M4.36286 0.491211C4.79582 0.491211 5.19547 0.524515 5.56182 0.624428C5.92817 0.691037 6.2279 0.824254 6.49434 0.990775C6.76077 1.1573 6.9606 1.39043 7.09382 1.69017C7.22703 1.9899 7.29364 2.35625 7.29364 2.7559C7.29364 3.22216 7.19373 3.62182 6.9606 3.92155C6.76077 4.22129 6.42773 4.48773 6.02808 4.68755C6.59425 4.85407 7.02721 5.15381 7.29364 5.55346C7.56008 5.95312 7.7266 6.45268 7.7266 7.01885C7.7266 7.48511 7.62668 7.88477 7.46016 8.21781C7.29364 8.55085 7.02721 8.85059 6.72747 9.05042C6.42773 9.25024 6.06138 9.41676 5.66173 9.51668C5.26208 9.61659 4.86243 9.6832 4.46278 9.6832H0V0.491211H4.36286ZM4.09643 4.22129C4.46278 4.22129 4.76251 4.12138 4.99565 3.95486C5.22878 3.78834 5.32869 3.4886 5.32869 3.12225C5.32869 2.92243 5.29538 2.7226 5.22877 2.58938C5.16217 2.45616 5.06225 2.35625 4.92904 2.25634C4.79582 2.18973 4.6626 2.12312 4.49608 2.08982C4.32956 2.05651 4.16304 2.05651 3.96321 2.05651H2.03156V4.22129H4.09643ZM4.19634 8.1512C4.39617 8.1512 4.59599 8.1179 4.76252 8.08459C4.92904 8.05129 5.09556 7.98468 5.22877 7.88477C5.36199 7.78485 5.46191 7.68494 5.56182 7.51842C5.62843 7.3519 5.69504 7.15207 5.69504 6.91894C5.69504 6.45268 5.56182 6.11964 5.29538 5.88651C5.02895 5.68668 4.6626 5.58677 4.22965 5.58677H2.03156V8.1512H4.19634ZM10.6241 8.1179C10.8905 8.38433 11.2902 8.51755 11.823 8.51755C12.1894 8.51755 12.5224 8.41763 12.7889 8.25111C13.0553 8.05129 13.2218 7.85146 13.2884 7.65164H14.9203C14.6539 8.45094 14.2542 9.01711 13.7214 9.38346C13.1885 9.7165 12.5557 9.91633 11.7897 9.91633C11.2569 9.91633 10.7906 9.81641 10.3576 9.64989C9.92468 9.48337 9.59164 9.25024 9.2919 8.9172C8.99216 8.61746 8.75903 8.25111 8.62581 7.81816C8.45929 7.3852 8.39268 6.91894 8.39268 6.38607C8.39268 5.88651 8.45929 5.42025 8.62581 4.98729C8.79233 4.55434 9.02547 4.18799 9.3252 3.85495C9.62494 3.55521 9.99129 3.28877 10.3909 3.12225C10.8239 2.95573 11.2569 2.85582 11.7897 2.85582C12.3559 2.85582 12.8555 2.95573 13.2884 3.18886C13.7214 3.42199 14.0544 3.68842 14.3208 4.08808C14.5873 4.45442 14.7871 4.88738 14.9203 5.35364C14.9869 5.8199 15.0202 6.28616 14.9869 6.81903H10.1578C10.1578 7.3519 10.3576 7.85146 10.6241 8.1179ZM12.7222 4.62094C12.4891 4.38781 12.1228 4.2546 11.6898 4.2546C11.3901 4.2546 11.1569 4.32121 10.9571 4.42112C10.7573 4.52103 10.6241 4.65425 10.4909 4.78747C10.3576 4.92068 10.291 5.0872 10.2577 5.25373C10.2244 5.42025 10.1911 5.55346 10.1911 5.68668H13.1885C13.1219 5.18712 12.9554 4.85407 12.7222 4.62094ZM9.79146 1.12399H13.5215V2.02321H9.79146V1.12399Z" fill="#A6ADB1"/>
</svg>
